<svg xmlns="http://www.w3.org/2000/svg" viewBox="0 0 760 180" role="img" aria-labelledby="title desc">
  <title id="title">AgentGuard</title>
  <desc id="desc">A shield containing connected agent nodes beside the AgentGuard wordmark.</desc>
  <defs>
    <linearGradient id="g" x1="0" y1="0" x2="1" y2="1">
      <stop stop-color="#22d3ee"/><stop offset="1" stop-color="#2563eb"/>
    </linearGradient>
  </defs>
  <rect width="760" height="180" rx="28" fill="#07111f"/>
  <path d="M92 24 150 46v43c0 38-24 59-58 72-34-13-58-34-58-72V46Z" fill="url(#g)"/>
  <path d="M92 38 137 55v34c0 29-17 45-45 57-28-12-45-28-45-57V55Z" fill="#07111f" opacity=".88"/>
  <g stroke="#67e8f9" stroke-width="4" fill="#dbeafe">
    <path d="m71 91 20-25 23 29M71 91l24 25 19-21" fill="none"/>
    <circle cx="91" cy="66" r="7"/><circle cx="71" cy="91" r="7"/><circle cx="114" cy="95" r="7"/><circle cx="95" cy="116" r="7"/>
  </g>
  <text x="185" y="94" fill="#f8fafc" font-family="Inter,Segoe UI,sans-serif" font-size="58" font-weight="750" letter-spacing="-2">Agent</text>
  <text x="342" y="94" fill="#22d3ee" font-family="Inter,Segoe UI,sans-serif" font-size="58" font-weight="750" letter-spacing="-2">Guard</text>
  <text x="188" y="129" fill="#94a3b8" font-family="Inter,Segoe UI,sans-serif" font-size="19" letter-spacing="3">AI AGENT SECURITY SCANNER</text>
</svg>
